<?xml version="1.0" encoding="UTF-8"?><svg id="Layer_2" xmlns="http://www.w3.org/2000/svg" viewBox="0 0 211.39 89.65"><g id="Layer_1-2"><path d="m0,88.57v-50.4h21.38c3.94,0,7.37.61,10.31,1.84,2.94,1.22,5.22,3.01,6.84,5.35,1.62,2.34,2.43,5.18,2.43,8.51,0,2.45-.43,4.6-1.3,6.44-.86,1.85-2.02,3.41-3.46,4.68-1.44,1.27-3.02,2.27-4.75,2.99l12.46,20.59h-17.14l-9.43-17.35h-2.81v17.35H0Zm14.54-28.8h5.33c1.99,0,3.56-.36,4.7-1.08,1.14-.72,1.71-1.99,1.71-3.82s-.57-3.13-1.71-3.83c-1.14-.71-2.68-1.06-4.63-1.06h-5.4v9.79Z"/><path d="m46.66,88.57v-50.4h37.37v12.53h-22.82v6.55h18.72v11.45h-18.72v7.2h23.11v12.67h-37.66Z"/><path d="m89.57,88.57v-50.4h37.37v12.53h-22.82v6.55h18.72v11.45h-18.72v7.2h23.11v12.67h-37.66Z"/><path d="m132.48,88.57v-50.4h34.56v13.25h-20.02v7.7h17.78v12.67h-17.78v16.78h-14.54Z"/><path d="m190.58,89.65c-4.03,0-7.95-.61-11.75-1.84-3.8-1.22-7.03-2.99-9.67-5.29l6.73-10.73c.98,1.15,2.3,2.16,3.96,3.02s3.43,1.54,5.33,2.02c1.9.48,3.7.72,5.4.72,1.92,0,3.5-.28,4.75-.83,1.25-.55,1.87-1.33,1.87-2.34s-.48-1.79-1.44-2.43c-.96-.64-2.74-1.29-5.33-1.96l-3.74-1.01c-5.47-1.49-9.38-3.56-11.74-6.21-2.35-2.65-3.53-5.79-3.53-9.41,0-2.28.5-4.4,1.49-6.37,1-1.97,2.39-3.69,4.18-5.17s3.89-2.62,6.32-3.44c2.42-.82,5.05-1.22,7.88-1.22,4.08,0,7.88.59,11.39,1.78s6.32,2.83,8.41,4.91l-6.98,10.44c-.84-.98-1.92-1.85-3.24-2.61-1.32-.76-2.77-1.35-4.36-1.78s-3.18-.65-4.79-.65c-1.27,0-2.38.15-3.31.45-.94.3-1.66.71-2.18,1.22-.52.52-.77,1.11-.77,1.78,0,.6.22,1.09.65,1.48.43.38,1.15.76,2.14,1.12,1,.36,2.35.79,4.05,1.3l3.67,1.08c5.47,1.61,9.41,3.59,11.81,5.94,2.4,2.35,3.6,5.39,3.6,9.11,0,3.34-.86,6.28-2.59,8.82-1.73,2.54-4.15,4.53-7.27,5.96-3.12,1.43-6.77,2.14-10.94,2.14Z"/><path d="m41.15,43.28c-.5-.07-1.08-.22-1.58-.5-.65-.43-1.01-.94-1.15-1.51-.14-.58,0-1.22.43-1.8.5-.79,1.3-1.3,2.09-1.73,1.44-.86,3.1-1.58,5.18-2.3.22-.14.5-.22.72-.29l1.22-.43c.72-.29.86-.72.94-1.01-.36-1.08-.86-1.01-2.23-1.51l-.14-.07c-.22-.14-.43-.22-.65-.29-.29-.14-.5-.22-.72-.29-.29-.22-.65-.43-.94-.72-.58-.58-.79-2.09-.14-2.66.07-.14.22-.22.29-.29,2.16-1.22,4.18-1.66,6.19-1.37.07.07.14.07.29.07.36.07.65.29.86.65.22.36.22.79.07,1.08-.22.36-.5.5-.86.58-.79,0-2.09-.29-2.52.43-.22.36-.22.79.07,1.08.94.86,2.38,1.51,3.1,2.3.22.29.5.5.86.5.22.07.5.07.72,0l1.87-.43,3.02-.72c3.1-.72,6.19-1.37,9.36-2.09.58-.14,1.15-.22,1.73-.29.22,0,.43-.07.65-.07.14,0,.36-.07.58,0,.58.07,1.01.5,1.08,1.08.07.5-.29,1.01-.79,1.22-.43.14-.79.22-1.15.14-.86-.07-1.58.07-2.45.22-3.46.79-6.91,1.66-10.37,2.45l-2.38.5-.36.14c-.14,0-.22.07-.36.07-.79.14-1.44.65-1.73,1.51-1.3,3.02-3.6,4.97-7.42,6.19-.94.29-2.02.36-3.24.22l-.14-.07Zm1.8-2.23h.43c1.44-.22,2.88-.86,4.1-1.94.22-.14.43-.58.29-.94-.14-.29-.43-.5-.72-.58-.07,0-.14,0-.29.07-1.44.36-2.88.94-4.25,1.8-.29.14-.43.5-.43.86.07.29.29.43.36.5l.22.22h.29Z"/><path d="m47.84,74.53c-.22-.22-.29-.5-.29-.86,0-.29.14-.58.36-.86v-.14c11.02-22.47,20.67-41.12,31.97-59.12l.5-.86h-1.44c-1.44.07-2.88.07-4.32.07l-1.51.07c-1.58,0-3.17,0-4.82.07-3.02.07-6.12.22-9.5.43-2.52.07-4.97.29-7.42.43l-2.02.22c-.22,0-.43,0-.65.07-.14-.07-.29-.07-.36-.07h-.43c-.43-.07-.72-.29-.79-.72-.22-.72.14-1.08.29-1.15.22-.14.43-.29.65-.36.94-.36,4.54-.43,5.4-.43.58,0,1.15-.07,1.73-.14.5-.07.94-.07,1.44-.07,1.94-.07,3.96-.22,5.98-.29,1.15-.07,2.3-.14,3.46-.14l6.34-.22h.65c1.66-.07,3.31-.14,4.97-.14h3.89l.22-.29c1.8-2.81,3.67-5.62,5.47-8.28.36-.43.72-1.01,1.22-1.44.22-.22.43-.29.65-.29.43,0,.79.22,1.01.65.22.43.14.72.07.94-.29.36-.5.79-.79,1.15l-4.46,6.7-.5.86h2.66c3.24,0,6.48.07,9.65.22,1.94,0,3.89.07,5.83.14,2.38.07,4.82.14,7.2.29.94.07,1.87.07,2.81.14.22,0,.58.07.79.14.36.07.72.65.72,1.01,0,.43-.43.86-.79.94-.36.07-.72.07-1.08.14h-2.02c-1.73,0-3.53-.07-5.18-.22-5.33-.36-10.8-.43-16.13-.5h-5.98l-.14.29c-12.53,19.66-23.33,40.97-32.26,59.12-.43.94-.79,1.66-1.22,2.3-.14.36-.5.5-.94.5,0,.07-.07.07-.07.07-.29,0-.58-.14-.79-.36Z"/><path d="m96.23,37.23c-1.22-.22-2.59-1.08-2.59-3.89,0-1.01.22-1.58-.07-1.87-.58-.58-1.22-.14-2.23.22l-.14.07c-.65.22-1.22.43-1.87.72l-4.03,1.51c-1.37.58-3.82,1.15-5.26.58-1.08-.43-1.73-1.51-1.51-2.59.36-1.87,1.22-3.67,2.66-5.4.22-.22.58-.43.86-.58.22-.14.43-.22.65-.22.29,0,.58.14.86.5.29.36.43.94-.14,1.37-.94.94-1.51,2.02-2.02,2.95-.07.22-.14.43-.14.58-.07.29,0,.5.14.79.5,1.08,2.3.07,2.95-.14,2.02-.65,4.03-1.44,5.9-2.23l.86-.36c.86-.36,1.8-.72,2.74-1.01.36-.14.79-.22,1.15-.22h.07c1.15,0,1.8.65,1.8,1.87,0,.22,0,.43-.58,2.59-.22.58-.5,1.37.07,2.09.29.36.72.5,1.22.5.43,0,.79-.14,1.22-.29.07,0,.14-.07.22-.07,1.3-.43,2.38-.86,3.38-1.3,2.45-1.15,4.97-2.38,7.34-3.53,1.01-.43,1.94-.86,2.88-1.37.07,0,.14-.07.22-.07l.43-.22h.36c.36,0,.65.14.86.36.29.43.29.94,0,1.37-.14.29-.43.5-.72.65l-.14.07c-.29.14-.65.36-1.01.5l-2.45,1.15c-2.59,1.15-5.26,2.45-7.85,3.6-1.3.65-2.74,1.22-4.25,1.37h-1.01c-.29,0-.58,0-.86-.07Z"/><path d="m122.51,36.44c-.5-.58-.72-1.22-.72-1.87,0-.36.07-.65.07-1.01v-.43c.07-.22,0-.43-.14-.65-.07-.14-.29-.22-.5-.22-.07,0-.22-.07-.29,0l-.07.07s-.5.29-.65.43c-.36.36-.86.58-1.3.86-1.87,1.22-3.6,2.45-5.54,2.95-.79.22-1.44.36-2.02.36h-.22c-1.08,0-1.66-.58-2.09-1.66-.36-.86-.29-1.73.14-2.88.94-2.52,4.68-5.4,8.06-5.4.43,0,.79.07,1.15.14.72.14,1.22.36,1.73.58.36.14.72.29,1.01.29.5,0,.94-.22,1.37-.72.36-.43.79-.79,1.22-1.22.65-.65,1.15-1.22,1.73-1.87,2.66-2.95,5.26-5.98,7.99-8.93,1.44-1.58,2.74-3.24,4.32-4.82l.22-.22c.29-.29.5-.5.72-.72s.5-.29.72-.29c.5,0,.86.29,1.08.79.14.29.14.58-.07.86-.58.79-1.15,1.58-1.8,2.3l-2.74,3.24c-1.15,1.3-2.3,2.66-3.38,4.03-2.38,3.02-4.46,5.83-6.19,8.78-.58,1.01-1.37,2.23-1.8,3.53-.14.43-.29.86-.22,1.37.07.5.43.86.86.86h.22c.22,0,.5-.07.72-.14,4.03-1.37,10.01-3.6,12.89-5.04l.14-.07c.43-.22.72-.43,1.15-.43h.07c.36,0,.72.22.86.5s.07.58,0,.94c-.07.29-.29.58-.58.79l-1.15.72c-4.25,2.52-10.08,4.46-13.46,5.04-.43.07-.79.14-1.22.14h-.07c-.94,0-1.73-.43-2.23-1.01Zm-9.65-2.23c2.02,0,3.82-1.44,5.33-2.95l.22-.29c.14-.14.36-.58.07-1.08-.14-.22-.29-.36-.5-.43-.14-.07-.36,0-.43-.07-.07-.07-.22-.07-.36-.07h-.22c-2.45,0-4.32,1.58-5.33,3.53-.14.29-.14.58-.07.79.07.22.22.29.43.5.07.07.36.14.58.14.14,0,.22-.07.29-.07Z"/><path d="m137.7,36.15c0-.43.07-.94.14-1.51.29-1.37.79-2.74,1.58-4.46.29-.43.5-.86.86-1.15.22-.14.43-.22.65-.22.14,0,.36,0,.58.07.29.14.5.58.5,1.01s-.14.79-.36,1.15c-.65,1.3-1.08,2.52-1.44,3.74-.07.43,0,.79.22,1.08.14.29.5.36.86.36h.29c.36-.07.72-.22,1.15-.36,1.44-.5,2.95-1.01,4.46-1.44,3.53-1.15,7.13-2.38,10.66-3.74l.29-.07c.94-.36,3.74-1.58,4.32-1.15.22.72,0,1.3-.58,1.8-.72.65-1.51,1.01-2.23,1.22-1.15.43-2.38.86-3.46,1.3-2.38.94-4.82,1.87-7.2,2.52-1.3.36-2.59.79-3.82,1.22-.72.22-1.37.5-2.02.72l-.22.07c-.79.22-1.58.5-2.23.5h-.22c-1.87,0-2.81-.86-2.81-2.66Zm5.98-15.05c-.22-.36-.22-.79,0-1.15.07-.22.29-.43.5-.72,1.3-1.08,2.38-1.94,3.46-2.59.36-.22.72-.36,1.08-.43h.22c.43,0,.86.29,1.08.79.14.36.07.79-.36,1.15-.07.14-.22.22-.36.29-1.3.72-2.52,1.66-3.6,2.59l-.07.07c-.36.29-.65.5-.94.5h-.07c-.43,0-.79-.22-.94-.5Z"/><path d="m157.93,37.37c-.58-.72-.72-1.73-.43-2.74.14-.58.36-1.08.65-1.58,1.15-1.94,2.66-3.74,4.97-5.62.72-.58,1.51-.86,2.23-.86,1.73,0,3.02,1.37,3.31,3.38v.36c0,.43.22,1.44,1.3,1.44.14,0,.36-.07.58-.07.65,0,1.22-.14,1.87-.29,2.45-.58,4.61-.94,6.84-1.51.58-.14,1.08-.29,1.73-.58.36-.14.72-.22,1.15-.22h.36c.5,0,.86.36,1.01.94.07.29-.07.86-.5,1.15-.36.22-.72.36-1.37.5-1.15.29-2.38.5-3.53.79-3.17.79-6.48,1.73-9.86,1.73-.65,0-1.15.29-1.66.79l-.14.14c-.58.58-1.01,1.15-1.58,1.66-1.37,1.15-2.81,1.87-4.54,1.73-.94-.07-1.8-.43-2.38-1.15Zm2.95-1.3c1.01-.14,1.8-.5,2.45-1.15.22-.22.22-.43.22-.58v-.22l-.07-.14c0-.14,0-.29-.14-.36-.72-.36-1.08-.79-1.58-.79-.65,0-1.15.43-1.58,1.3-.14.29-.22.5-.29.79-.07.22.07.43.22.72s.43.43.72.43h.07Zm4.18-4.68c.65,0,1.15-.36,1.15-.94,0-.36-.07-.72-.29-.94-.22-.22-.43-.36-.72-.36-.43,0-.72.14-1.08.5-.22.22-.29.5-.29.79,0,.86.86.94,1.15.94h.07Z"/></g></svg>